v 0.0001874773 0.20001173 0.25723135
vn -1 0.00000001490116 -0.000000014901161
vt 0.37061954 0.26903415
v 0.00018746915 0.3810876 0.44085756
vn -1 0.00000001490116 -0.000000014901161
vt 0.12096531 0.58689564
v 0.00018747403 0.17960882 0.5173685
vn -1 0.00000001490116 -0.000000014901161
vt 0.016942708 0.23321891
v 0.00018746758 0.3810876 0.5156428
vn -1 0.00000001490116 -0.000000014901161
vt 0.019289011 0.58689564
v 0.00018747403 0.17960882 0.5173685
vn 1 0.00000001490116 -0.000000014901161
vt 0.016942708 0.23321891
v 0.0001874773 0.20001173 0.25723135
vn 1 0.00000001490116 -0.000000014901161
vt 0.37061954 0.26903415
v 0.00018746915 0.3810876 0.44085756
vn 1 0.00000001490116 -0.000000014901161
vt 0.12096531 0.58689564
v 0.00018747403 0.17960882 0.5173685
vn 1 0.00000001490116 -0.000000014901161
vt 0.016942708 0.23321891
v 0.00018746915 0.3810876 0.44085756
vn 1 0.00000001490116 -0.000000014901161
vt 0.12096531 0.58689564
v 0.00018746758 0.3810876 0.5156428
vn 1 0.00000001490116 -0.000000014901161
vt 0.019289011 0.58689564
v 0.0038749215 0.24719106 0.45021227
vn 0.000000014901161 1 -0.00000005861255
vt 0.45698908 0.0028834343
v 0.0038749215 0.24719106 0.33890936
vn 0.000000014901161 1 -0.00000005861255
vt 0.45698908 0.120618045
v -0.24606806 0.24719106 0.38603133
vn 0.000000014901161 1 -0.00000005861255
vt 0.095014066 0.06520188
v -0.24606806 0.24719106 0.44948345
vn 0.000000014901161 1 -0.00000005861255
vt 0.095014066 0.0035911798
v -0.24606806 0.24719106 0.38603133
vn 0.000000014901161 -1 0.000000028810227
vt 0.095014066 0.06520188
v 0.0038749215 0.24719106 0.33890936
vn 0.000000014901161 -1 0.000000028810227
vt 0.45698908 0.120618045
v 0.0038749215 0.24719106 0.45021227
vn 0.000000014901161 -1 0.000000028810227
vt 0.45698908 0.0028834343
v -0.24606806 0.24719106 0.38603133
vn 0.000000014901161 -1 0.000000028810227
vt 0.095014066 0.06520188
v 0.0038749215 0.24719106 0.45021227
vn 0.000000014901161 -1 0.000000028810227
vt 0.45698908 0.0028834343
v -0.24606806 0.24719106 0.44948345
vn 0.000000014901161 -1 0.000000028810227
vt 0.095014066 0.0035911798
v 1 0.18589959 -0.039960746
vn -0.049937602 0.99875236 -0.00000005853942
vt 0.0004995167 0.12359291
v 0.36141863 0.13878858 -0.2308457
vn -0.049937602 0.99875236 -0.00000005853942
vt 0.6918274 0.35921413
v 0.36141866 0.13785756 0.061663657
vn -0.049937602 0.99875236 -0.00000005853942
vt 0.69197625 -0.0018486977
v 0.36141866 0.13785756 0.061663657
vn -0.049875453 0.99750936 0.04987541
vt 0.69197625 -0.0018486977
v 0.9617112 0.18017729 0.061663657
vn -0.049875453 0.99750936 0.04987541
vt 0.042414606 -0.0018484592
v 1 0.18589959 -0.039960746
vn -0.049875453 0.99750936 0.04987541
vt 0.0004995167 0.12359291
v 0.36141863 0.13878858 -0.2308457
vn 0.049937632 -0.99875236 0.00000002877428
vt 0.6918274 0.35921413
v 1 0.18589959 -0.039960746
vn 0.049937632 -0.99875236 0.00000002877428
vt 0.0004995167 0.12359291
v 0.36141866 0.13785756 0.061663657
vn 0.049937632 -0.99875236 0.00000002877428
vt 0.69197625 -0.0018486977
v 0.9617112 0.18017729 0.061663657
vn 0.049875483 -0.99750936 -0.04987544
vt 0.042414606 -0.0018484592
v 0.0053262683 0.24719106 0.45021227
vn 0.000000014901161 -1 0.000000028810227
vt 0.45896262 0.0028834343
v 0.0053262683 0.24719106 0.33890936
vn 0.000000014901161 -1 0.000000028810227
vt 0.45896262 0.120617986
v 0.25526926 0.24719107 0.44948345
vn 0.000000014901161 -1 0.000000028810227
vt 0.09106696 0.0035911798
v 0.25526923 0.24719109 0.38603133
vn 0.000000014901161 -1 0.000000028810227
vt 0.09106696 0.057955503
v 0.25526923 0.24719109 0.38603133
vn 0.000000014901161 1 -0.00000005861255
vt 0.09106696 0.057955503
v 0.0053262683 0.24719106 0.33890936
vn 0.000000014901161 1 -0.00000005861255
vt 0.45896262 0.120617986
v 0.0053262683 0.24719106 0.45021227
vn 0.000000014901161 1 -0.00000005861255
vt 0.45896262 0.0028834343
v 0.25526923 0.24719109 0.38603133
vn 0.000000014901161 1 -0.00000005861255
vt 0.09106696 0.057955503
v 0.0053262683 0.24719106 0.45021227
vn 0.000000014901161 1 -0.00000005861255
vt 0.45896262 0.0028834343
v 0.25526926 0.24719107 0.44948345
vn 0.000000014901161 1 -0.00000005861255
vt 0.09106696 0.0035911798
v 0.3435625 0.037666675 0.21444753
vn -0.2761724 -0.9205747 0.27617243
vt 0.9947061 0.68519455
v 0.42894533 0.04363722 0.21444754
vn 0.9274778 -0.32461724 0.18549557
vt 0.994583 0.727097
v 0.44937772 0.027515916 -0.080684885
vn 0.7249995 -0.6887495 0.000000019302863
vt 0.77217484 0.73689926
v 0.32557264 0.018858625 -0.080684885
vn -0.62469506 -0.7808688 0.000000022497009
vt 0.77235335 0.6761407
v 0.42894533 0.043637194 -0.3748884
vn 0.39581954 -0.879599 -0.2638797
vt 0.5493699 0.72709703
v 0.3435625 0.037666645 -0.3748884
vn -0.8630637 -0.47468504 -0.17261274
vt 0.54949313 0.6851946
v 0.33813474 0.11528741 0.21444753
vn -0.7133764 0.6777076 0.17834407
vt 0.9921421 0.68353134
v 0.42351755 0.12125795 0.21444754
vn 0.56568545 0.70710677 0.42426404
vt 0.992019 0.72543377
v 0.31770235 0.13140869 -0.08068489
vn -0.72452354 0.6882974 -0.036226217
vt 0.7686355 0.6737292
v 0.44150743 0.14006597 -0.08068489
vn 0.6242195 0.78027433 0.039013673
vt 0.768457 0.73448765
v 0.42351755 0.12125793 -0.3748884
vn 0.6172134 0.77151674 -0.15430339
vt 0.54680586 0.7254338
v 0.33813474 0.115287386 -0.3748884
vn -0.65582585 0.6230346 -0.4262869
vt 0.5469291 0.68353146
v 0.3435625 0.037666675 0.21444753
vn -0.2761724 -0.9205747 0.27617243
vt 0.36485308 0.31871706
v 0.42894533 0.04363722 0.21444754
vn 0.9274778 -0.32461724 0.18549557
vt 0.51631933 0.318717
v 0.42351755 0.12125795 0.21444754
vn 0.56568545 0.70710677 0.42426404
vt 0.5163194 0.46886963
v 0.33813474 0.11528741 0.21444753
vn -0.7133764 0.6777076 0.17834407
vt 0.36485308 0.46886963
v 0.42894533 0.04363722 0.21444754
vn 0.9274778 -0.32461724 0.18549557
vt 0.99248683 0.55246013
v 0.42351755 0.12125795 0.21444754
vn 0.56568545 0.70710677 0.42426404
vt 0.99248683 0.6337088
v 0.44150743 0.14006597 -0.08068489
vn 0.6242195 0.78027433 0.039013673
vt 0.76592875 0.6528677
v 0.44937772 0.027515916 -0.080684885
vn 0.7249995 -0.6887495 0.000000019302863
vt 0.76592875 0.53505707
v 0.42351755 0.12125793 -0.3748884
vn 0.6172134 0.77151674 -0.15430339
vt 0.5400834 0.6337089
v 0.42894533 0.043637194 -0.3748884
vn 0.39581954 -0.879599 -0.2638797
vt 0.5400834 0.55246013
v 0.42894533 0.043637194 -0.3748884
vn 0.39581954 -0.879599 -0.2638797
vt 0.5155027 0.31871694
v 0.3435625 0.037666645 -0.3748884
vn -0.8630637 -0.47468504 -0.17261274
vt 0.3640364 0.318717
v 0.33813474 0.115287386 -0.3748884
vn -0.65582585 0.6230346 -0.4262869
vt 0.36403644 0.46886957
v 0.42351755 0.12125793 -0.3748884
vn 0.6172134 0.77151674 -0.15430339
vt 0.5155027 0.46886957
v 0.3435625 0.037666645 -0.3748884
vn -0.8630637 -0.47468504 -0.17261274
vt 0.5400834 0.548558
v 0.33813474 0.115287386 -0.3748884
vn -0.65582585 0.6230346 -0.4262869
vt 0.5400834 0.62980676
v 0.31770235 0.13140869 -0.08068489
vn -0.72452354 0.6882974 -0.036226217
vt 0.76592875 0.6472096
v 0.32557264 0.018858625 -0.080684885
vn -0.62469506 -0.7808688 0.000000022497009
vt 0.76592875 0.52939904
v 0.33813474 0.11528741 0.21444753
vn -0.7133764 0.6777076 0.17834407
vt 0.99248683 0.62980664
v 0.3435625 0.037666675 0.21444753
vn -0.2761724 -0.9205747 0.27617243
vt 0.99248683 0.54855794
v -0.044524062 0.16090293 0.5006204
vn 0.00000001482721 -0.9950372 0.09950375
vt 0.97942656 0.7810115
v 0.0532965 0.16090293 0.5006204
vn 0.9938081 -0.04969039 0.0993808
vt 0.9794266 0.81802213
v 0.13243335 0.09033229 -0.20655182
vn 0.5715476 -0.81649655 0.08164968
vt 0.34960607 0.84796387
v -0.12366088 0.09033229 -0.20655182
vn -0.14834045 -0.98893636 0.000000028491481
vt 0.349606 0.75107
v -0.07025086 0.11141289 -0.46086916
vn -0.9205747 -0.2761724 -0.27617243
vt 0.12310636 0.77127784
v 0.07902332 0.11141289 -0.46086913
vn 0.32461724 -0.9274778 -0.18549553
vt 0.12310642 0.82775605
v 0.01397647 0.15000555 -0.57599473
vn 0.000000014064585 -0.9438583 -0.33035043
vt 0.020573437 0.80314547
v -0.0052040336 0.15000555 -0.57599473
vn -0.8728716 0.2182179 -0.4364358
vt 0.020573437 0.7958885
v -0.04066272 0.18878177 0.5237927
vn 0.00000001488257 0.99875236 0.049937557
vt 0.99935937 0.89343226
v 0.049435157 0.18878177 0.5237927
vn 0.32708853 0.9345386 0.14018074
vt 0.99935937 0.9995607
v 0.042640083 0.2241577 -0.20166437
vn 0.5445101 0.8377078 0.041885342
vt 0.34057066 0.9915569
v -0.033867612 0.2241577 -0.20166437
vn -0.40993875 0.91097504 -0.045548808
vt 0.34057063 0.90143657
v 0.0439668 0.2052709 -0.45084044
vn 0.6172134 0.77151674 -0.15430339
vt 0.114293486 0.9931197
v -0.03519435 0.2052709 -0.45084044
vn -0.5883484 0.78446454 -0.1961162
vt 0.114293456 0.89987385
v 0.0101840235 0.15001673 -0.57599306
vn 0.5146503 0.7352146 -0.44112882
vt 0.00064218044 0.9533263
v -0.0014115867 0.15001673 -0.57599306
vn 0.000000013588689 0.9119215 -0.41036472
vt 0.00064218044 0.93966746
v -0.0052040336 0.15000555 -0.57599473
vn -0.8728716 0.2182179 -0.4364358
vt 0.0006406605 0.9352003
v -0.044524062 0.16090293 0.5006204
vn 0.00000001482721 -0.9950372 0.09950375
vt 0.98098147 0.52718985
v 0.0532965 0.16090293 0.5006204
vn 0.9938081 -0.04969039 0.0993808
vt 0.98098147 0.52718985
v 0.049435157 0.18878177 0.5237927
vn 0.32708853 0.9345386 0.14018074
vt 1.0021415 0.7344234
v -0.04066272 0.18878177 0.5237927
vn 0.00000001488257 0.99875236 0.049937557
vt 1.0021415 0.7344234
v 0.0532965 0.16090293 0.5006204
vn 0.9938081 -0.04969039 0.0993808
vt 0.98098147 0.87296456
v 0.049435157 0.18878177 0.5237927
vn 0.32708853 0.9345386 0.14018074
vt 1.0021415 0.92309844
v 0.042640083 0.2241577 -0.20166437
vn 0.5445101 0.8377078 0.041885342
vt 0.3396824 0.98671466
v 0.13243335 0.09033229 -0.20655182
vn 0.5715476 -0.81649655 0.08164968
vt 0.33521935 0.74605894
v 0.0439668 0.2052709 -0.45084044
vn 0.6172134 0.77151674 -0.15430339
vt 0.11214453 0.952751
v 0.07902332 0.11141289 -0.46086913
vn 0.32461724 -0.9274778 -0.18549553
vt 0.10298672 0.7839679
v 0.0101840235 0.15001673 -0.57599306
vn 0.5146503 0.7352146 -0.44112882
vt -0.002139926 0.8533886
v 0.01397647 0.15000555 -0.57599473
vn 0.000000014064585 -0.9438583 -0.33035043
vt -0.0021414757 0.8533686
v -0.0052040336 0.15000555 -0.57599473
vn -0.8728716 0.2182179 -0.4364358
vt -0.0021414757 0.8533686
v -0.07025086 0.11141289 -0.46086916
vn -0.9205747 -0.2761724 -0.27617243
vt 0.10298669 0.7839679
v -0.03519435 0.2052709 -0.45084044
vn -0.5883484 0.78446454 -0.1961162
vt 0.11214453 0.952751
v -0.033867612 0.2241577 -0.20166437
vn -0.40993875 0.91097504 -0.045548808
vt 0.3396824 0.98671466
v -0.12366088 0.09033229 -0.20655182
vn -0.14834045 -0.98893636 0.000000028491481
vt 0.33521935 0.74605894
v -0.12366088 0.09033229 -0.20655182
vn -0.8753762 0.48145694 0.043768775
vt 0.33521935 0.74605894
v -0.044524062 0.16090293 0.5006204
vn -0.9938081 0.049690425 0.0993808
vt 0.98098147 0.87296456
v -0.04066272 0.18878177 0.5237927
vn -0.8753762 0.48145694 0.043768775
vt 1.0021415 0.92309844
v -0.033867612 0.2241577 -0.20166437
vn -0.8384436 0.5449884 -0.00000003631598
vt 0.3396824 0.98671466
v -0.01402371 0.27552631 -0.07031677
vn 0.000000014611791 0.9805807 0.19611607
vt 0.4008092 0.5056166
v 0.023089685 0.27552631 -0.070316784
vn 0.2683282 0.8944273 0.35777086
vt 0.4008092 0.6077058
v 0.023089675 0.27476218 -0.14723495
vn 0.85435766 0.5126146 -0.0854358
vt 0.2943899 0.60770583
v -0.014023718 0.27476218 -0.14723495
vn 0.00000001277764 0.8574929 -0.51449585
vt 0.2943899 0.50561666
v -0.026648458 0.21020758 0.059824258
vn 0.000000013328005 0.8944273 0.44721362
vt 0.525764 0.5062994
v 0.03573573 0.21020758 0.059824258
vn 0.8451542 0.5070926 0.16903083
vt 0.525764 0.6070828
v 0.03573573 0.2209049 -0.20567124
vn 0.8213016 0.49278095 -0.2874556
vt 0.22656086 0.607083
v -0.026648458 0.2209049 -0.20567124
vn 0.000000011075946 0.7432942 -0.66896486
vt 0.22656086 0.5062996
v 0.03573573 0.21020758 0.059824258
vn 0.8451542 0.5070926 0.16903083
vt 0.3787582 0.6289375
v 0.03573573 0.2209049 -0.20567124
vn 0.8213016 0.49278095 -0.2874556
vt 0.049677134 0.6350828
v 0.023089675 0.27476218 -0.14723495
vn 0.85435766 0.5126146 -0.0854358
vt 0.12210881 0.7098347
v 0.023089685 0.27552631 -0.070316784
vn 0.2683282 0.8944273 0.35777086
vt 0.21744865 0.71096385
v -0.026648458 0.2209049 -0.20567124
vn -0.9805807 0.19611615 -0.000000023184299
vt 0.049677134 0.6350828
v -0.026648458 0.21020758 0.059824258
vn -0.9805807 0.19611615 -0.000000023184299
vt 0.3787582 0.6289375
v -0.01402371 0.27552631 -0.07031677
vn -0.9805807 0.19611615 -0.000000023184299
vt 0.21744871 0.71096385
v -0.014023718 0.27476218 -0.14723495
vn -0.9701426 0.24253568 -0.000000025057822
vt 0.12210881 0.7098347
v -0.46046555 0.044649146 0.21444754
vn -0.3958196 -0.8795991 0.26387975
vt 0.9947061 0.68519455
v -0.37513807 0.03793373 0.21444753
vn 0.8630637 -0.47468504 0.17261274
vt 0.994583 0.727097
v -0.35731304 0.01896941 -0.080684885
vn 0.6 -0.8 0.000000023048184
vt 0.77217484 0.73689926
v -0.48103783 0.028706761 -0.080684885
vn -0.7249995 -0.6887495 0.000000019302863
vt 0.77235335 0.6761407
v -0.3751381 0.037933704 -0.3748884
vn 0.2761724 -0.9205746 -0.27617237
vt 0.5493699 0.72709703
v -0.46046555 0.044649117 -0.3748884
vn -0.9274778 -0.3246172 -0.18549556
vt 0.54949313 0.6851946
v -0.45436063 0.12221956 0.21444754
vn -0.5924644 0.7899525 0.15799046
vt 0.9921421 0.68353134
v -0.3690332 0.11550414 0.21444753
vn 0.65582585 0.6230346 0.42628676
vt 0.992019 0.72543377
v -0.34846088 0.1314465 -0.08068489
vn 0.72452354 0.6882974 0.03622614
vt 0.768457 0.73448765
v -0.47218567 0.14118384 -0.08068489
vn -0.5995206 0.7993609 -0.03996809
vt 0.7686355 0.6737292
v -0.3690332 0.115504116 -0.3748884
vn 0.71337634 0.67770755 -0.17834415
vt 0.54680586 0.7254338
v -0.45436063 0.12221954 -0.3748884
vn -0.5409138 0.72121847 -0.43273112
vt 0.5469291 0.68353146
v -0.46046555 0.044649146 0.21444754
vn -0.3958196 -0.8795991 0.26387975
vt 0.36485308 0.31871706
v -0.37513807 0.03793373 0.21444753
vn 0.8630637 -0.47468504 0.17261274
vt 0.51631933 0.318717
v -0.3690332 0.11550414 0.21444753
vn 0.65582585 0.6230346 0.42628676
vt 0.5163194 0.46886963
v -0.45436063 0.12221956 0.21444754
vn -0.5924644 0.7899525 0.15799046
vt 0.36485308 0.46886963
v -0.37513807 0.03793373 0.21444753
vn 0.8630637 -0.47468504 0.17261274
vt 0.99248683 0.55246013
v -0.3690332 0.11550414 0.21444753
vn 0.65582585 0.6230346 0.42628676
vt 0.99248683 0.6337088
v -0.34846088 0.1314465 -0.08068489
vn 0.72452354 0.6882974 0.03622614
vt 0.76592875 0.6528677
v -0.35731304 0.01896941 -0.080684885
vn 0.6 -0.8 0.000000023048184
vt 0.76592875 0.53505707
v -0.3690332 0.115504116 -0.3748884
vn 0.71337634 0.67770755 -0.17834415
vt 0.5400834 0.6337089
v -0.3751381 0.037933704 -0.3748884
vn 0.2761724 -0.9205746 -0.27617237
vt 0.5400834 0.55246013
v -0.3751381 0.037933704 -0.3748884
vn 0.2761724 -0.9205746 -0.27617237
vt 0.5155027 0.31871694
v -0.46046555 0.044649117 -0.3748884
vn -0.9274778 -0.3246172 -0.18549556
vt 0.3640364 0.318717
v -0.45436063 0.12221954 -0.3748884
vn -0.5409138 0.72121847 -0.43273112
vt 0.36403644 0.46886957
v -0.3690332 0.115504116 -0.3748884
vn 0.71337634 0.67770755 -0.17834415
vt 0.5155027 0.46886957
v -0.46046555 0.044649117 -0.3748884
vn -0.9274778 -0.3246172 -0.18549556
vt 0.5400834 0.548558
v -0.45436063 0.12221954 -0.3748884
vn -0.5409138 0.72121847 -0.43273112
vt 0.5400834 0.62980676
v -0.47218567 0.14118384 -0.08068489
vn -0.5995206 0.7993609 -0.03996809
vt 0.76592875 0.6472096
v -0.48103783 0.028706761 -0.080684885
vn -0.7249995 -0.6887495 0.000000019302863
vt 0.76592875 0.52939904
v -0.45436063 0.12221956 0.21444754
vn -0.5924644 0.7899525 0.15799046
vt 0.99248683 0.62980664
v -0.46046555 0.044649146 0.21444754
vn -0.3958196 -0.8795991 0.26387975
vt 0.99248683 0.54855794
v -0.9994758 0.18343046 -0.039960746
vn -0.049937602 -0.99875236 0.00000002877428
vt 0.0004995167 0.12359291
v -0.36094517 0.13563566 -0.2308457
vn -0.049937602 -0.99875236 0.00000002877428
vt 0.6918274 0.35921413
v -0.3608076 0.13655648 0.061663657
vn -0.049937602 -0.99875236 0.00000002877428
vt 0.69197625 -0.0018486977
v -0.3608076 0.13655648 0.061663657
vn -0.0993808 -0.9938081 0.049690437
vt 0.69197625 -0.0018486977
v -0.9607618 0.18343048 0.061663657
vn -0.0993808 -0.9938081 0.049690437
vt 0.042414606 -0.0018484592
v -0.9994758 0.18343046 -0.039960746
vn -0.0993808 -0.9938081 0.049690437
vt 0.0004995167 0.12359291
v -0.36094517 0.13563566 -0.2308457
vn 0.09950373 0.9950372 -0.000000058321667
vt 0.6918274 0.35921413
v -0.9994758 0.18343046 -0.039960746
vn 0.049937632 0.99875236 -0.00000005853942
vt 0.0004995167 0.12359291
v -0.3608076 0.13655648 0.061663657
vn 0.09950373 0.9950372 -0.000000058321667
vt 0.69197625 -0.0018486977
v -0.9607618 0.18343048 0.061663657
vn 0.09938083 0.9938081 -0.049690466
vt 0.042414606 -0.0018484592
v 0.36141866 0.13785756 0.061663657
vn 0.049937632 -0.99875236 0.00000002877428
vt 0.69197625 -0.0018486977
v 0.077220134 0.11782197 0.06166366
vn 0.049937632 -0.99875236 0.00000002877428
vt 0.9995004 -0.0018486977
v 0.36141863 0.13878858 -0.2308457
vn 0.049937632 -0.99875236 0.00000002877428
vt 0.6918274 0.35921413
v 0.07722012 0.11782199 -0.3157984
vn 0.049937632 -0.99875236 0.00000002877428
vt 0.9995005 0.46407652
v 0.36141863 0.13878858 -0.2308457
vn -0.049937602 0.99875236 -0.00000005853942
vt 0.6918274 0.35921413
v 0.07722012 0.11782199 -0.3157984
vn -0.049937602 0.99875236 -0.00000005853942
vt 0.9995005 0.46407652
v 0.077220134 0.11782197 0.06166366
vn -0.049937602 0.99875236 -0.00000005853942
vt 0.9995004 -0.0018486977
v 0.077220134 0.11782197 0.06166366
vn -0.049937602 0.99875236 -0.00000005853942
vt 0.9995004 -0.0018486977
v 0.36141866 0.13785756 0.061663657
vn -0.049937602 0.99875236 -0.00000005853942
vt 0.69197625 -0.0018486977
v 0.36141863 0.13878858 -0.2308457
vn -0.049937602 0.99875236 -0.00000005853942
vt 0.6918274 0.35921413
v -0.076769255 0.11436474 -0.3157984
vn 0.049937632 0.99875236 -0.00000005853942
vt 0.9995005 0.46407652
v -0.36094517 0.13563566 -0.2308457
vn 0.09950373 0.9950372 -0.000000058321667
vt 0.6918274 0.35921413
v -0.07676926 0.11436476 0.06166366
vn 0.09950373 0.9950372 -0.000000058321667
vt 0.9995004 -0.0018486977
v -0.3608076 0.13655648 0.061663657
vn 0.09950373 0.9950372 -0.000000058321667
vt 0.69197625 -0.0018486977
v -0.36094517 0.13563566 -0.2308457
vn -0.049937602 -0.99875236 0.00000002877428
vt 0.6918274 0.35921413
v -0.076769255 0.11436474 -0.3157984
vn -0.049937602 -0.99875236 0.00000002877428
vt 0.9995005 0.46407652
v -0.07676926 0.11436476 0.06166366
vn -0.049937602 -0.99875236 0.00000002877428
vt 0.9995004 -0.0018486977
v -0.07676926 0.11436476 0.06166366
vn -0.0995037 -0.9950372 0.000000028667246
vt 0.9995004 -0.0018486977
v -0.3608076 0.13655648 0.061663657
vn -0.0995037 -0.9950372 0.000000028667246
vt 0.69197625 -0.0018486977
v -0.36094517 0.13563566 -0.2308457
vn -0.0995037 -0.9950372 0.000000028667246
vt 0.6918274 0.35921413
# name: , texture: 0, texture_name: air_me262_10T
f 2/2/2 1/1/1 3/3/3
f 2/2/2 3/3/3 4/4/4
f 5/5/5 6/6/6 7/7/7
f 8/8/8 9/9/9 10/10/10
f 11/11/11 12/12/12 13/13/13
f 14/14/14 11/11/11 13/13/13
f 15/15/15 16/16/16 17/17/17
f 18/18/18 19/19/19 20/20/20
f 21/21/21 22/22/22 23/23/23
f 24/24/24 25/25/25 26/26/26
f 27/27/27 28/28/28 29/29/29
f 30/30/30 29/29/29 28/28/28
f 31/31/31 32/32/32 34/34/34
f 33/33/33 31/31/31 34/34/34
f 35/35/35 36/36/36 37/37/37
f 38/38/38 39/39/39 40/40/40
f 41/41/41 44/44/44 43/43/43
f 43/43/43 42/42/42 41/41/41
f 45/45/45 43/43/43 44/44/44
f 44/44/44 46/46/46 45/45/45
f 47/47/47 48/48/48 50/50/50
f 50/50/50 49/49/49 47/47/47
f 49/49/49 50/50/50 51/51/51
f 51/51/51 52/52/52 49/49/49
f 53/53/53 54/54/54 55/55/55
f 55/55/55 56/56/56 53/53/53
f 57/57/57 60/60/60 59/59/59
f 59/59/59 58/58/58 57/57/57
f 61/61/61 59/59/59 60/60/60
f 60/60/60 62/62/62 61/61/61
f 63/63/63 64/64/64 65/65/65
f 65/65/65 66/66/66 63/63/63
f 67/67/67 70/70/70 69/69/69
f 69/69/69 68/68/68 67/67/67
f 71/71/71 69/69/69 70/70/70
f 70/70/70 72/72/72 71/71/71
f 73/73/73 76/76/76 75/75/75
f 75/75/75 74/74/74 73/73/73
f 78/78/78 75/75/75 76/76/76
f 76/76/76 77/77/77 78/78/78
f 79/79/79 78/78/78 77/77/77
f 77/77/77 80/80/80 79/79/79
f 81/81/81 82/82/82 83/83/83
f 83/83/83 84/84/84 81/81/81
f 84/84/84 83/83/83 85/85/85
f 85/85/85 86/86/86 84/84/84
f 86/86/86 85/85/85 87/87/87
f 87/87/87 88/88/88 86/86/86
f 86/86/86 88/88/88 89/89/89
f 90/90/90 91/91/91 92/92/92
f 92/92/92 93/93/93 90/90/90
f 94/94/94 97/97/97 96/96/96
f 96/96/96 95/95/95 94/94/94
f 98/98/98 96/96/96 97/97/97
f 97/97/97 99/99/99 98/98/98
f 100/100/100 98/98/98 99/99/99
f 99/99/99 101/101/101 100/100/100
f 102/102/102 103/103/103 104/104/104
f 105/105/105 104/104/104 103/103/103
f 103/103/103 106/106/106 105/105/105
f 107/107/107 108/108/108 109/109/109
f 109/109/109 110/110/110 107/107/107
f 111/111/111 112/112/112 113/113/113
f 113/113/113 114/114/114 111/111/111
f 112/112/112 111/111/111 115/115/115
f 115/115/115 116/116/116 112/112/112
f 114/114/114 113/113/113 117/117/117
f 117/117/117 118/118/118 114/114/114
f 119/119/119 120/120/120 121/121/121
f 121/121/121 122/122/122 119/119/119
f 123/123/123 124/124/124 125/125/125
f 125/125/125 126/126/126 123/123/123
f 127/127/127 130/130/130 129/129/129
f 129/129/129 128/128/128 127/127/127
f 131/131/131 129/129/129 130/130/130
f 130/130/130 132/132/132 131/131/131
f 133/133/133 134/134/134 135/135/135
f 135/135/135 136/136/136 133/133/133
f 136/136/136 135/135/135 137/137/137
f 137/137/137 138/138/138 136/136/136
f 139/139/139 140/140/140 141/141/141
f 141/141/141 142/142/142 139/139/139
f 143/143/143 146/146/146 145/145/145
f 145/145/145 144/144/144 143/143/143
f 147/147/147 145/145/145 146/146/146
f 146/146/146 148/148/148 147/147/147
f 149/149/149 150/150/150 151/151/151
f 151/151/151 152/152/152 149/149/149
f 153/153/153 156/156/156 155/155/155
f 155/155/155 154/154/154 153/153/153
f 157/157/157 155/155/155 156/156/156
f 156/156/156 158/158/158 157/157/157
f 159/159/159 160/160/160 161/161/161
f 162/162/162 163/163/163 164/164/164
f 165/165/165 166/166/166 167/167/167
f 168/168/168 167/167/167 166/166/166
# name: player color, texture: 0, texture_name: air_me262_10T
f 172/172/172 171/171/171 170/170/170
f 169/169/169 170/170/170 171/171/171
f 173/173/173 174/174/174 175/175/175
f 176/176/176 177/177/177 178/178/178
f 179/179/179 180/180/180 181/181/181
f 182/182/182 181/181/181 180/180/180
f 183/183/183 184/184/184 185/185/185
f 186/186/186 187/187/187 188/188/188
