# created with CEMtool v0.3 by zocker_160 
s off 
v -0.026009 0.093903 -0.694499 
vn -0.580370 0.682789 -0.443813 
vt 0.000500 0.085924 
v 0.020535 0.093903 -0.694499 
vn 0.232873 0.931493 -0.279448 
vt 0.000500 0.085924 
v -0.066799 0.150992 -0.436356 
vn -0.608229 0.760286 -0.228086 
vt 0.164554 0.135335 
v -0.026009 0.053284 -0.694499 
vn -0.784465 -0.509902 -0.353009 
vt 0.000500 0.050768 
v 0.020535 0.053284 -0.694499 
vn 0.942809 -0.047140 -0.329983 
vt 0.000500 0.050768 
v 0.064485 0.150992 -0.436356 
vn 0.556890 0.795557 -0.238667 
vt 0.164554 0.135335 
v -0.066799 0.010587 -0.538912 
vn -0.778499 -0.622799 -0.077850 
vt 0.099378 0.013813 
v -0.049126 0.201166 -0.228853 
vn -0.837708 0.544510 -0.041885 
vt 0.296426 0.178761 
v 0.064485 0.010587 -0.538912 
vn 0.872872 -0.480079 -0.087287 
vt 0.099378 0.013813 
v 0.064485 0.007583 -0.276522 
vn 0.894427 -0.447214 -0.000000 
vt 0.266131 0.011213 
v -0.066799 0.007583 -0.276522 
vn -0.876216 -0.481919 -0.000000 
vt 0.266131 0.011213 
v 0.049853 0.201166 -0.228853 
vn 0.838444 0.544988 -0.000000 
vt 0.296426 0.178761 
v -0.043299 0.201785 0.145709 
vn -0.856706 0.514024 0.042835 
vt 0.534467 0.179297 
v 0.044026 0.201785 0.145709 
vn 0.893534 0.446767 0.044677 
vt 0.534467 0.179297 
v 0.064485 0.012842 0.073831 
vn 0.819232 -0.573462 -0.000000 
vt 0.488787 0.015764 
v -0.066799 0.012842 0.073831 
vn -0.799361 -0.599521 0.039968 
vt 0.488787 0.015764 
v -0.031646 0.173455 0.411846 
vn -0.835512 0.543083 0.083551 
vt 0.703602 0.154777 
v 0.044026 0.173455 0.411846 
vn 0.854358 0.512615 0.085436 
vt 0.703602 0.154777 
v -0.028733 0.094062 0.877449 
vn -0.617213 0.771517 0.154303 
vt 0.999501 0.086061 
v -0.066799 0.035238 0.570679 
vn -0.835512 -0.543083 0.083551 
vt 0.804543 0.035149 
v 0.064485 0.035238 0.570679 
vn 0.667124 -0.741249 0.074125 
vt 0.804543 0.035149 
v 0.026547 0.061674 0.876497 
vn 0.146735 -0.978232 0.146735 
vt 0.998896 0.058029 
v 0.026546 0.094062 0.877449 
vn 0.845154 0.507093 0.169031 
vt 0.999501 0.086061 
v -0.028733 0.061674 0.876497 
vn -0.492781 -0.821302 0.287456 
vt 0.998896 0.058029 
v -0.350718 0.083195 0.657699 
vn 0.000000 1.000000 -0.000000 
vt 0.000500 0.617858 
v -0.350718 0.083195 0.820685 
vn 0.000000 1.000000 -0.000000 
vt 0.000500 0.403882 
v 0.352417 0.083195 0.657699 
vn 0.000000 1.000000 -0.000000 
vt 0.652155 0.617857 
v 0.352417 0.083195 0.820685 
vn 0.000000 1.000000 -0.000000 
vt 0.652155 0.403881 
v -0.350718 0.083195 0.820685 
vn 0.000000 -1.000000 -0.000000 
vt 0.000500 0.403882 
v -0.350718 0.083195 0.657699 
vn 0.000000 -1.000000 -0.000000 
vt 0.000500 0.617858 
v 0.352417 0.083195 0.657699 
vn 0.000000 -1.000000 -0.000000 
vt 0.652155 0.617857 
v 0.352417 0.083195 0.657699 
vn 0.000000 -1.000000 -0.000000 
vt 0.652155 0.617857 
v 0.352417 0.083195 0.820685 
vn 0.000000 -1.000000 -0.000000 
vt 0.652155 0.403881 
v -0.350718 0.083195 0.820685 
vn 0.000000 -1.000000 -0.000000 
vt 0.000500 0.403882 
v -0.356782 0.326155 0.616932 
vn -1.000000 0.000000 -0.000000 
vt 0.659675 0.416370 
v -0.356782 0.016390 0.616932 
vn -1.000000 0.000000 -0.000000 
vt 0.997519 0.416370 
v -0.356782 0.326155 0.864744 
vn -1.000000 0.000000 -0.000000 
vt 0.659675 0.607785 
v -0.356782 0.016390 0.864744 
vn -1.000000 0.000000 -0.000000 
vt 0.997519 0.607785 
v -0.356782 0.016390 0.864744 
vn 1.000000 0.000000 -0.000000 
vt 0.997519 0.607785 
v -0.356782 0.016390 0.616932 
vn 1.000000 0.000000 -0.000000 
vt 0.997519 0.416370 
v -0.356782 0.326155 0.616932 
vn 1.000000 0.000000 -0.000000 
vt 0.659675 0.416370 
v -0.993104 0.118579 -0.194712 
vn 0.099504 0.995037 -0.000000 
vt 0.000500 0.985008 
v -0.993104 0.118579 0.104178 
vn 0.099504 0.995037 -0.000000 
vt 0.000500 0.618858 
v -0.291104 0.044893 -0.194712 
vn 0.049938 0.998752 -0.000000 
vt 0.731995 0.985007 
v -0.356782 0.016390 0.864744 
vn 1.000000 0.000000 -0.000000 
vt 0.997519 0.607785 
v -0.291104 0.044893 0.104178 
vn 0.049938 0.998752 -0.000000 
vt 0.731995 0.618857 
v -0.356782 0.326155 0.864744 
vn 1.000000 0.000000 -0.000000 
vt 0.659675 0.607785 
v -0.356782 0.326155 0.616932 
vn 1.000000 0.000000 -0.000000 
vt 0.659675 0.416370 
v -0.291104 0.044893 0.104178 
vn -0.099504 -0.995037 -0.000000 
vt 0.731995 0.618857 
v -0.993104 0.118579 0.104178 
vn -0.099504 -0.995037 -0.000000 
vt 0.000500 0.618858 
v -0.291104 0.044893 -0.194712 
vn -0.099504 -0.995037 -0.000000 
vt 0.731995 0.985007 
v -0.993104 0.118579 -0.194712 
vn -0.099504 -0.995037 -0.000000 
vt 0.000500 0.985008 
v -0.291104 0.044893 -0.194712 
vn -0.099504 -0.995037 -0.000000 
vt 0.731995 0.985007 
v -0.993104 0.118579 0.104178 
vn -0.099504 -0.995037 -0.000000 
vt 0.000500 0.618858 
v 0.057809 0.138661 -0.443634 
vn 0.934539 0.327089 -0.140181 
vt 0.390379 0.284882 
v 0.025621 0.202307 -0.522304 
vn 0.640257 0.753244 -0.150649 
vt 0.332682 0.366331 
v 0.023459 0.209553 -0.368842 
vn 0.194029 0.970142 0.145521 
vt 0.457643 0.361717 
v 0.043373 0.180199 -0.259303 
vn 0.686946 0.723101 0.072310 
vt 0.547312 0.349345 
v -0.032836 0.209553 -0.368842 
vn -0.514496 0.857493 -0.000000 
vt 0.457643 0.361717 
v -0.056522 0.180199 -0.259303 
vn -0.406579 0.903508 0.135526 
vt 0.547312 0.349345 
v 0.027245 0.100948 -0.627888 
vn 0.617213 0.524631 -0.586353 
vt 0.260491 0.242420 
v 0.018131 0.154035 -0.587968 
vn 0.685189 0.548151 -0.479632 
vt 0.291699 0.308491 
v -0.034966 0.202307 -0.522304 
vn -0.719350 0.647415 -0.251773 
vt 0.332682 0.366331 
v -0.027970 0.154035 -0.587968 
vn -0.143499 0.681621 -0.717496 
vt 0.291699 0.308491 
v -0.033872 0.100948 -0.627888 
vn -0.883022 0.309058 -0.353209 
vt 0.260491 0.242420 
v -0.060185 0.138661 -0.443634 
vn -0.939682 0.328889 -0.093968 
vt 0.390379 0.284882 
v -0.167540 0.221635 0.157086 
vn -0.826898 0.330759 -0.454794 
vt 0.014245 0.380015 
v -0.068690 0.221635 0.157086 
vn 0.348155 0.870388 -0.348155 
vt 0.204227 0.380015 
v -0.068690 0.122784 0.157086 
vn 0.826898 -0.330759 -0.454794 
vt 0.204227 0.190033 
v -0.167540 0.122784 0.157086 
vn -0.348155 -0.870388 -0.348155 
vt 0.014245 0.190033 
v -0.168824 0.222918 0.563474 
vn -0.324443 0.811107 0.486664 
vt 0.013689 0.380572 
v -0.168824 0.121500 0.563474 
vn -0.870388 -0.348155 0.348155 
vt 0.013689 0.189477 
v -0.067406 0.121500 0.563474 
vn 0.324443 -0.811107 0.486664 
vt 0.204783 0.189477 
v -0.067406 0.222918 0.563474 
vn 0.870388 0.348155 0.348155 
vt 0.204784 0.380571 
v -0.167540 0.221635 0.157086 
vn -0.826898 0.330759 -0.454794 
vt 0.983636 0.381049 
v -0.167540 0.122784 0.157086 
vn -0.348155 -0.870388 -0.348155 
vt 0.983636 0.254277 
v -0.196207 0.094117 0.361716 
vn -0.707107 -0.707107 -0.000000 
vt 0.781271 0.217513 
v -0.196207 0.250301 0.361716 
vn -0.707107 0.707107 -0.000000 
vt 0.781271 0.417813 
v -0.168824 0.222918 0.563474 
vn -0.324443 0.811107 0.486664 
vt 0.581747 0.382695 
v -0.168824 0.121500 0.563474 
vn -0.870388 -0.348155 0.348155 
vt 0.581747 0.252630 
v -0.167540 0.122784 0.157086 
vn -0.348155 -0.870388 -0.348155 
vt 0.981002 0.287318 
v -0.068690 0.122784 0.157086 
vn 0.826898 -0.330759 -0.454794 
vt 0.981002 0.326208 
v -0.040023 0.094117 0.361716 
vn 0.707107 -0.707107 -0.000000 
vt 0.786438 0.337486 
v -0.196207 0.094117 0.361716 
vn -0.707107 -0.707107 -0.000000 
vt 0.786438 0.276040 
v -0.067406 0.121500 0.563474 
vn 0.324443 -0.811107 0.486664 
vt 0.574869 0.326713 
v -0.168824 0.121500 0.563474 
vn -0.870388 -0.348155 0.348155 
vt 0.574869 0.286813 
v -0.068690 0.221635 0.157086 
vn 0.348155 0.870388 -0.348155 
vt 0.983636 0.381049 
v -0.040023 0.250301 0.361716 
vn 0.707107 0.707107 -0.000000 
vt 0.781271 0.417813 
v -0.068690 0.122784 0.157086 
vn 0.826898 -0.330759 -0.454794 
vt 0.983636 0.254277 
v -0.040023 0.094117 0.361716 
vn 0.707107 -0.707107 -0.000000 
vt 0.781271 0.217513 
v -0.067406 0.222918 0.563474 
vn 0.870388 0.348155 0.348155 
vt 0.581747 0.382695 
v -0.067406 0.121500 0.563474 
vn 0.324443 -0.811107 0.486664 
vt 0.581747 0.252630 
v -0.068690 0.221635 0.157086 
vn 0.348155 0.870388 -0.348155 
vt 0.981002 0.326208 
v -0.167540 0.221635 0.157086 
vn -0.826898 0.330759 -0.454794 
vt 0.981002 0.287318 
v -0.196207 0.250301 0.361716 
vn -0.707107 0.707107 -0.000000 
vt 0.786438 0.276040 
v -0.168824 0.222918 0.563474 
vn -0.324443 0.811107 0.486664 
vt 0.574869 0.286813 
v -0.040023 0.250301 0.361716 
vn 0.707107 0.707107 -0.000000 
vt 0.786438 0.337486 
v -0.067406 0.222918 0.563474 
vn 0.870388 0.348155 0.348155 
vt 0.574869 0.326713 
v 1.000000 0.118579 -0.194712 
vn 0.099504 -0.995037 -0.000000 
vt 0.000500 0.985008 
v 0.297999 0.044893 0.104268 
vn 0.049938 -0.998752 -0.000000 
vt 0.731995 0.621273 
v 0.297999 0.044893 -0.194712 
vn 0.049938 -0.998752 -0.000000 
vt 0.731995 0.985007 
v 1.000000 0.118579 0.104268 
vn 0.099504 -0.995037 -0.000000 
vt 0.000500 0.621273 
v 1.000000 0.118579 -0.194712 
vn -0.099504 0.995037 -0.000000 
vt 0.000500 0.985008 
v 0.297999 0.044893 -0.194712 
vn -0.099504 0.995037 -0.000000 
vt 0.731995 0.985007 
v 1.000000 0.118579 0.104268 
vn -0.099504 0.995037 -0.000000 
vt 0.000500 0.621273 
v 0.297999 0.044893 0.104268 
vn -0.099504 0.995037 -0.000000 
vt 0.731995 0.621273 
v 1.000000 0.118579 0.104268 
vn -0.099504 0.995037 -0.000000 
vt 0.000500 0.621273 
v 0.297999 0.044893 -0.194712 
vn -0.099504 0.995037 -0.000000 
vt 0.731995 0.985007 
v -0.264615 0.063411 -0.005894 
vn 0.696311 0.696311 0.174078 
vt 0.747958 0.200870 
v -0.311256 0.063411 -0.005894 
vn -0.669275 -0.602347 0.435028 
vt 0.747958 0.200870 
v -0.307251 0.061902 -0.206538 
vn -0.544510 0.837708 -0.041885 
vt 0.919791 0.201077 
v -0.259044 0.061902 -0.206538 
vn 0.595726 0.794301 -0.119145 
vt 0.919791 0.201077 
v -0.327130 0.029836 -0.299851 
vn -0.586967 0.557619 -0.586967 
vt 0.994550 0.163582 
v -0.244516 0.029836 -0.299851 
vn 0.501718 -0.595790 -0.627147 
vt 0.994550 0.163582 
v -0.327130 -0.003377 -0.201321 
vn -0.600000 -0.800000 -0.000000 
vt 0.917967 0.129288 
v -0.244516 -0.003377 -0.201321 
vn 0.533396 -0.820610 0.205152 
vt 0.917967 0.129288 
v 0.158510 0.221635 0.157086 
vn 0.348155 0.870388 -0.348155 
vt 0.204227 0.380015 
v 0.059659 0.221635 0.157086 
vn -0.826898 0.330759 -0.454794 
vt 0.014245 0.380015 
v 0.158510 0.122784 0.157086 
vn 0.826898 -0.330759 -0.454794 
vt 0.204227 0.190033 
v 0.059659 0.122784 0.157086 
vn -0.348155 -0.870388 -0.348155 
vt 0.014245 0.190033 
v 0.058375 0.121500 0.563474 
vn -0.870388 -0.348155 0.348155 
vt 0.013689 0.189477 
v 0.159794 0.121500 0.563474 
vn 0.324443 -0.811107 0.486664 
vt 0.204783 0.189477 
v 0.058375 0.222918 0.563474 
vn -0.324443 0.811107 0.486664 
vt 0.013689 0.380572 
v 0.159794 0.222918 0.563474 
vn 0.870388 0.348155 0.348155 
vt 0.204784 0.380571 
v 0.059659 0.221635 0.157086 
vn -0.826898 0.330759 -0.454794 
vt 0.983636 0.381049 
v 0.059659 0.122784 0.157086 
vn -0.348155 -0.870388 -0.348155 
vt 0.983636 0.254277 
v 0.030992 0.250301 0.361716 
vn -0.707107 0.707107 -0.000000 
vt 0.781271 0.417813 
v 0.030992 0.094117 0.361716 
vn -0.707107 -0.707107 -0.000000 
vt 0.781271 0.217513 
v 0.058375 0.121500 0.563474 
vn -0.870388 -0.348155 0.348155 
vt 0.581747 0.252630 
v 0.058375 0.222918 0.563474 
vn -0.324443 0.811107 0.486664 
vt 0.581747 0.382695 
v 0.059659 0.122784 0.157086 
vn -0.348155 -0.870388 -0.348155 
vt 0.981002 0.287318 
v 0.158510 0.122784 0.157086 
vn 0.826898 -0.330759 -0.454794 
vt 0.981002 0.326208 
v 0.187176 0.094117 0.361716 
vn 0.707107 -0.707107 -0.000000 
vt 0.786438 0.337486 
v 0.030992 0.094117 0.361716 
vn -0.707107 -0.707107 -0.000000 
vt 0.786438 0.276040 
v 0.159794 0.121500 0.563474 
vn 0.324443 -0.811107 0.486664 
vt 0.574869 0.326713 
v 0.058375 0.121500 0.563474 
vn -0.870388 -0.348155 0.348155 
vt 0.574869 0.286813 
v 0.158510 0.122784 0.157086 
vn 0.826898 -0.330759 -0.454794 
vt 0.983636 0.254277 
v 0.158510 0.221635 0.157086 
vn 0.348155 0.870388 -0.348155 
vt 0.983636 0.381049 
v 0.187176 0.250301 0.361716 
vn 0.707107 0.707107 -0.000000 
vt 0.781271 0.417813 
v 0.187176 0.094117 0.361716 
vn 0.707107 -0.707107 -0.000000 
vt 0.781271 0.217513 
v 0.159794 0.222918 0.563474 
vn 0.870388 0.348155 0.348155 
vt 0.581747 0.382695 
v 0.159794 0.121500 0.563474 
vn 0.324443 -0.811107 0.486664 
vt 0.581747 0.252630 
v 0.059659 0.221635 0.157086 
vn -0.826898 0.330759 -0.454794 
vt 0.981002 0.287318 
v 0.158510 0.221635 0.157086 
vn 0.348155 0.870388 -0.348155 
vt 0.981002 0.326208 
v 0.030992 0.250301 0.361716 
vn -0.707107 0.707107 -0.000000 
vt 0.786438 0.276040 
v 0.187176 0.250301 0.361716 
vn 0.707107 0.707107 -0.000000 
vt 0.786438 0.337486 
v 0.159794 0.222918 0.563474 
vn 0.870388 0.348155 0.348155 
vt 0.574869 0.326713 
v 0.058375 0.222918 0.563474 
vn -0.324443 0.811107 0.486664 
vt 0.574869 0.286813 
v 0.354761 0.016390 0.616932 
vn -1.000000 0.000000 -0.000000 
vt 0.997519 0.416370 
v 0.354761 0.326155 0.864744 
vn -1.000000 0.000000 -0.000000 
vt 0.659675 0.607785 
v 0.354761 0.326155 0.616932 
vn -1.000000 0.000000 -0.000000 
vt 0.659675 0.416370 
v 0.354761 0.016390 0.864744 
vn -1.000000 0.000000 -0.000000 
vt 0.997519 0.607785 
v 0.354761 0.016390 0.864744 
vn 1.000000 0.000000 -0.000000 
vt 0.997519 0.607785 
v 0.354761 0.016390 0.616932 
vn 1.000000 0.000000 -0.000000 
vt 0.997519 0.416370 
v 0.354761 0.326155 0.616932 
vn 1.000000 0.000000 -0.000000 
vt 0.659675 0.416370 
v 0.354761 0.016390 0.864744 
vn 1.000000 0.000000 -0.000000 
vt 0.997519 0.607785 
v 0.354761 0.326155 0.616932 
vn 1.000000 0.000000 -0.000000 
vt 0.659675 0.416370 
v 0.354761 0.326155 0.864744 
vn 1.000000 0.000000 -0.000000 
vt 0.659675 0.607785 
v 0.324991 0.063411 -0.005894 
vn 0.696311 0.696311 0.174078 
vt 0.747958 0.200870 
v 0.330563 0.061902 -0.206538 
vn 0.595726 0.794301 -0.119145 
vt 0.919791 0.201077 
v 0.282356 0.061902 -0.206538 
vn -0.544510 0.837708 -0.041885 
vt 0.919791 0.201077 
v 0.278350 0.063411 -0.005894 
vn -0.669275 -0.602347 0.435028 
vt 0.747958 0.200870 
v 0.345090 -0.003377 -0.201321 
vn 0.533396 -0.820610 0.205152 
vt 0.917967 0.129288 
v 0.262477 -0.003377 -0.201321 
vn -0.600000 -0.800000 -0.000000 
vt 0.917967 0.129288 
v 0.262477 0.029836 -0.299851 
vn -0.586967 0.557619 -0.586967 
vt 0.994550 0.163582 
v 0.345090 0.029836 -0.299851 
vn 0.501718 -0.595790 -0.627147 
vt 0.994550 0.163582 
v -0.034384 0.058651 0.104178 
vn 0.049938 -0.998752 -0.000000 
vt 0.999500 0.618857 
v -0.291104 0.044893 0.104178 
vn 0.049938 -0.998752 -0.000000 
vt 0.731995 0.618857 
v -0.034384 0.058651 -0.194712 
vn 0.049938 -0.998752 -0.000000 
vt 0.999500 0.985007 
v -0.291104 0.044893 -0.194712 
vn 0.049938 -0.998752 -0.000000 
vt 0.731995 0.985007 
v -0.034384 0.058651 -0.194712 
vn 0.049938 -0.998752 -0.000000 
vt 0.999500 0.985007 
v -0.291104 0.044893 0.104178 
vn 0.049938 -0.998752 -0.000000 
vt 0.731995 0.618857 
v -0.291104 0.044893 0.104178 
vn 0.049938 0.998752 -0.000000 
vt 0.731995 0.618857 
v -0.034384 0.058651 0.104178 
vn -0.049938 0.998752 -0.000000 
vt 0.999500 0.618857 
v -0.291104 0.044893 -0.194712 
vn 0.049938 0.998752 -0.000000 
vt 0.731995 0.985007 
v -0.034384 0.058651 -0.194712 
vn -0.049938 0.998752 -0.000000 
vt 0.999500 0.985007 
v 0.041279 0.058651 0.104268 
vn 0.049938 0.998752 -0.000000 
vt 0.999500 0.621273 
v 0.297999 0.044893 0.104268 
vn 0.049938 0.998752 -0.000000 
vt 0.731995 0.621273 
v 0.041279 0.058651 -0.194712 
vn 0.049938 0.998752 -0.000000 
vt 0.999500 0.985007 
v 0.297999 0.044893 -0.194712 
vn 0.049938 0.998752 -0.000000 
vt 0.731995 0.985007 
v 0.041279 0.058651 -0.194712 
vn 0.049938 0.998752 -0.000000 
vt 0.999500 0.985007 
v 0.297999 0.044893 0.104268 
vn 0.049938 0.998752 -0.000000 
vt 0.731995 0.621273 
v 0.297999 0.044893 0.104268 
vn 0.049938 -0.998752 -0.000000 
vt 0.731995 0.621273 
v 0.041279 0.058651 0.104268 
vn -0.049938 -0.998752 -0.000000 
vt 0.999500 0.621273 
v 0.297999 0.044893 -0.194712 
vn 0.049938 -0.998752 -0.000000 
vt 0.731995 0.985007 
v 0.041279 0.058651 -0.194712 
vn -0.049938 -0.998752 -0.000000 
vt 0.999500 0.985007 
##########
# material name: , texture name: air_a10_10T, vertex count: 166 
o Scene Root 
f 7/7/7 3/3/3 4/4/4 
f 1/1/1 4/4/4 3/3/3 
f 3/3/3 7/7/7 8/8/8 
f 11/11/11 8/8/8 7/7/7 
f 8/8/8 11/11/11 13/13/13 
f 16/16/16 13/13/13 11/11/11 
f 13/13/13 16/16/16 17/17/17 
f 20/20/20 17/17/17 16/16/16 
f 17/17/17 20/20/20 19/19/19 
f 17/17/17 19/19/19 18/18/18 
f 20/20/20 16/16/16 21/21/21 
f 15/15/15 21/21/21 16/16/16 
f 21/21/21 15/15/15 18/18/18 
f 14/14/14 18/18/18 15/15/15 
f 15/15/15 10/10/10 14/14/14 
f 12/12/12 14/14/14 10/10/10 
f 10/10/10 9/9/9 12/12/12 
f 12/12/12 9/9/9 6/6/6 
f 9/9/9 10/10/10 7/7/7 
f 11/11/11 7/7/7 10/10/10 
f 9/9/9 4/4/4 5/5/5 
f 7/7/7 4/4/4 9/9/9 
f 9/9/9 5/5/5 6/6/6 
f 2/2/2 6/6/6 5/5/5 
f 10/10/10 15/15/15 11/11/11 
f 16/16/16 11/11/11 15/15/15 
f 4/4/4 1/1/1 5/5/5 
f 5/5/5 1/1/1 2/2/2 
f 3/3/3 2/2/2 1/1/1 
f 6/6/6 2/2/2 3/3/3 
f 8/8/8 6/6/6 3/3/3 
f 12/12/12 6/6/6 8/8/8 
f 8/8/8 13/13/13 12/12/12 
f 14/14/14 12/12/12 13/13/13 
f 13/13/13 17/17/17 14/14/14 
f 18/18/18 14/14/14 17/17/17 
f 19/19/19 20/20/20 24/24/24 
f 23/23/23 18/18/18 19/19/19 
f 18/18/18 23/23/23 21/21/21 
f 22/22/22 21/21/21 23/23/23 
f 21/21/21 22/22/22 20/20/20 
f 24/24/24 20/20/20 22/22/22 
f 19/19/19 24/24/24 23/23/23 
f 22/22/22 23/23/23 24/24/24 
f 25/25/25 26/26/26 27/27/27 
f 28/28/28 27/27/27 26/26/26 
f 29/29/29 30/30/30 31/31/31 
f 32/32/32 33/33/33 34/34/34 
f 35/35/35 36/36/36 37/37/37 
f 38/38/38 37/37/37 36/36/36 
f 39/39/39 40/40/40 41/41/41 
f 42/42/42 43/43/43 44/44/44 
f 45/45/45 48/48/48 47/47/47 
f 46/46/46 44/44/44 43/43/43 
f 49/49/49 50/50/50 51/51/51 
f 52/52/52 53/53/53 54/54/54 
f 59/59/59 57/57/57 56/56/56 
f 56/56/56 63/63/63 59/59/59 
f 56/56/56 62/62/62 63/63/63 
f 62/62/62 56/56/56 55/55/55 
f 56/56/56 57/57/57 58/58/58 
f 62/62/62 64/64/64 63/63/63 
f 58/58/58 55/55/55 56/56/56 
f 55/55/55 61/61/61 62/62/62 
f 64/64/64 62/62/62 61/61/61 
f 60/60/60 58/58/58 57/57/57 
f 57/57/57 59/59/59 60/60/60 
f 61/61/61 65/65/65 64/64/64 
f 64/64/64 65/65/65 63/63/63 
f 65/65/65 66/66/66 63/63/63 
f 59/59/59 63/63/63 66/66/66 
f 66/66/66 60/60/60 59/59/59 
f 67/67/67 68/68/68 69/69/69 
f 69/69/69 70/70/70 67/67/67 
f 71/71/71 72/72/72 73/73/73 
f 74/74/74 71/71/71 73/73/73 
f 75/75/75 76/76/76 77/77/77 
f 77/77/77 78/78/78 75/75/75 
f 78/78/78 77/77/77 80/80/80 
f 80/80/80 79/79/79 78/78/78 
f 81/81/81 82/82/82 83/83/83 
f 83/83/83 84/84/84 81/81/81 
f 83/83/83 85/85/85 84/84/84 
f 85/85/85 86/86/86 84/84/84 
f 87/87/87 88/88/88 89/89/89 
f 88/88/88 90/90/90 89/89/89 
f 90/90/90 88/88/88 91/91/91 
f 91/91/91 92/92/92 90/90/90 
f 93/93/93 94/94/94 95/95/95 
f 96/96/96 98/98/98 97/97/97 
f 97/97/97 95/95/95 96/96/96 
f 95/95/95 97/97/97 93/93/93 
f 99/99/99 102/102/102 101/101/101 
f 100/100/100 101/101/101 102/102/102 
f 103/103/103 104/104/104 105/105/105 
f 106/106/106 107/107/107 108/108/108 
f 109/109/109 111/111/111 110/110/110 
f 109/109/109 112/112/112 111/111/111 
f 112/112/112 113/113/113 111/111/111 
f 114/114/114 115/115/115 113/113/113 
f 112/112/112 114/114/114 113/113/113 
f 115/115/115 110/110/110 111/111/111 
f 111/111/111 113/113/113 115/115/115 
f 114/114/114 116/116/116 115/115/115 
f 116/116/116 110/110/110 115/115/115 
f 116/116/116 109/109/109 110/110/110 
f 112/112/112 109/109/109 116/116/116 
f 116/116/116 114/114/114 112/112/112 
f 118/118/118 117/117/117 119/119/119 
f 119/119/119 120/120/120 118/118/118 
f 121/121/121 122/122/122 123/123/123 
f 122/122/122 124/124/124 123/123/123 
f 125/125/125 126/126/126 128/128/128 
f 128/128/128 127/127/127 125/125/125 
f 127/127/127 128/128/128 129/129/129 
f 129/129/129 130/130/130 127/127/127 
f 131/131/131 132/132/132 133/133/133 
f 133/133/133 134/134/134 131/131/131 
f 134/134/134 133/133/133 135/135/135 
f 135/135/135 136/136/136 134/134/134 
f 137/137/137 138/138/138 139/139/139 
f 139/139/139 140/140/140 137/137/137 
f 140/140/140 139/139/139 141/141/141 
f 141/141/141 142/142/142 140/140/140 
f 144/144/144 143/143/143 145/145/145 
f 145/145/145 146/146/146 144/144/144 
f 146/146/146 145/145/145 148/148/148 
f 148/148/148 147/147/147 146/146/146 
f 149/149/149 150/150/150 151/151/151 
f 152/152/152 150/150/150 149/149/149 
f 153/153/153 154/154/154 155/155/155 
f 156/156/156 157/157/157 158/158/158 
f 160/160/160 161/161/161 159/159/159 
f 159/159/159 161/161/161 162/162/162 
f 160/160/160 165/165/165 161/161/161 
f 160/160/160 166/166/166 165/165/165 
f 166/166/166 164/164/164 165/165/165 
f 162/162/162 161/161/161 164/164/164 
f 161/161/161 165/165/165 164/164/164 
f 166/166/166 163/163/163 164/164/164 
f 163/163/163 162/162/162 164/164/164 
f 163/163/163 159/159/159 162/162/162 
f 163/163/163 160/160/160 159/159/159 
f 160/160/160 163/163/163 166/166/166 
# material name: player color, texture name: air_a10_10T, vertex count: 20 
o player color 
f 167/167/167 168/168/168 169/169/169 
f 170/170/170 171/171/171 172/172/172 
f 173/173/173 174/174/174 175/175/175 
f 176/176/176 175/175/175 174/174/174 
f 177/177/177 178/178/178 179/179/179 
f 180/180/180 181/181/181 182/182/182 
f 183/183/183 184/184/184 185/185/185 
f 186/186/186 185/185/185 184/184/184 
