########## created with CEMtool v0.3 by zocker_160 
s off 
o Scene Root 
v 0.186674 0.150287 -0.202072 
vn 0.970142 0.000000 -0.242536 
vt 0.525326 0.419712 
v 0.143878 0.125219 -0.354301 
vn 0.761387 -0.647179 0.038069 
vt 0.616692 0.447532 
v -0.000000 0.000223 -0.252287 
vn 0.000000 -1.000000 -0.000000 
vt 0.555464 0.541063 
v 0.117660 0.077051 -0.843518 
vn 0.761387 0.494902 -0.418763 
vt 0.910318 0.464576 
v 0.165459 0.076395 -0.640296 
vn 0.369800 -0.924500 -0.092450 
vt 0.788345 0.433503 
v -0.000000 0.023606 -0.738422 
vn 0.000000 -1.000000 -0.000000 
vt 0.847240 0.541063 
v -0.000000 0.076706 -0.986552 
vn 0.000000 -0.911922 -0.410365 
vt 0.996167 0.541063 
v -0.165459 0.076395 -0.640296 
vn -0.369800 -0.924500 -0.092450 
vt 0.788345 0.648623 
v -0.143878 0.125219 -0.354301 
vn -0.761387 -0.647179 0.038069 
vt 0.616692 0.634593 
v -0.186674 0.150287 -0.202072 
vn -0.970142 0.000000 -0.242536 
vt 0.525326 0.662413 
v -0.117660 0.077051 -0.843518 
vn -0.761387 0.494902 -0.418763 
vt 0.910318 0.617550 
v 0.000000 0.379226 0.337092 
vn 0.000000 0.980581 0.196116 
vt 0.511470 0.921828 
v 0.000000 0.453697 -0.180427 
vn 0.000000 0.995037 0.099504 
vt 0.869009 0.988266 
v 0.059238 0.420668 -0.341271 
vn 0.826898 0.537484 -0.165380 
vt 0.980132 0.958800 
v 0.117482 0.376575 -0.175313 
vn 0.684712 0.720750 0.108112 
vt 0.865477 0.919463 
v 0.079261 0.290170 0.342689 
vn 0.826898 0.537484 0.165380 
vt 0.507603 0.842379 
v 0.127261 0.117549 0.287696 
vn 0.686398 -0.686398 0.240239 
vt 0.545596 0.688378 
v 0.157651 0.303161 -0.170766 
vn 0.957826 0.287348 -0.000000 
vt 0.862335 0.853968 
v 0.104806 0.303161 -0.333808 
vn 0.880451 0.440225 -0.176090 
vt 0.974976 0.853968 
v 0.234288 0.208866 0.171534 
vn -0.146735 0.978232 0.146735 
vt 0.625849 0.769845 
v 0.186674 0.150287 -0.202072 
vn 0.970142 0.000000 -0.242536 
vt 0.883964 0.717585 
v 0.234288 0.160955 0.171534 
vn 0.408669 -0.908153 0.090815 
vt 0.625849 0.727102 
v 0.143878 0.125219 -0.354301 
vn 0.761387 -0.647179 0.038069 
vt 0.989134 0.695221 
v -0.000000 0.449559 -0.341271 
vn 0.000000 1.000000 -0.000000 
vt 0.980132 0.984574 
v 0.104806 0.303161 -0.333808 
vn 0.880451 0.440225 -0.176090 
vt 0.011449 0.618120 
v 0.108855 0.288749 -0.516950 
vn 0.826898 0.537484 -0.165380 
vt 0.008223 0.379706 
v -0.104806 0.303161 -0.333808 
vn -0.880451 0.440225 -0.176090 
vt 0.178435 0.618120 
v -0.000000 0.345167 -0.528376 
vn 0.000000 0.980581 -0.196116 
vt 0.094942 0.379480 
v -0.000000 0.353793 -0.376875 
vn 0.000000 0.998752 -0.049938 
vt 0.094942 0.621775 
v -0.108855 0.288749 -0.516950 
vn -0.826898 0.537484 -0.165380 
vt 0.179109 0.379706 
v 0.108855 0.288749 -0.516950 
vn 0.826898 0.537484 -0.165380 
vt 0.176352 0.376233 
v 0.083494 0.229451 -0.683826 
vn 0.815139 0.448327 -0.366813 
vt 0.179023 0.568503 
v -0.000000 0.260618 -0.709139 
vn 0.000000 0.838444 -0.544988 
vt 0.094394 0.567231 
v -0.000000 0.345167 -0.528376 
vn 0.000000 0.980581 -0.196116 
vt 0.094394 0.377175 
v -0.108855 0.288749 -0.516950 
vn -0.826898 0.537484 -0.165380 
vt 0.007843 0.377482 
v -0.083494 0.229451 -0.683826 
vn -0.815139 0.448327 -0.366813 
vt 0.009766 0.568503 
v 0.117660 0.077051 -0.843518 
vn 0.761387 0.494902 -0.418763 
vt 0.296475 0.378900 
v 0.093507 0.130635 -0.756911 
vn 0.736709 0.589368 -0.331519 
vt 0.353064 0.427110 
v 0.165459 0.076395 -0.640296 
vn 0.369800 -0.924500 -0.092450 
vt 0.429262 0.337553 
v 0.129589 0.153671 -0.548471 
vn 0.735215 0.661693 -0.147043 
vt 0.489261 0.406441 
v -0.000000 0.076706 -0.986552 
vn 0.000000 -0.911922 -0.410365 
vt 0.203015 0.480676 
v -0.000000 0.157510 -0.844041 
vn 0.000000 0.857493 -0.514496 
vt 0.319815 0.480676 
v -0.117660 0.077051 -0.843518 
vn -0.761387 0.494902 -0.418763 
vt 0.296475 0.582453 
v -0.093507 0.130635 -0.756911 
vn -0.736709 0.589368 -0.331519 
vt 0.353064 0.534242 
v -0.165459 0.076395 -0.640296 
vn -0.369800 -0.924500 -0.092450 
vt 0.429262 0.623800 
v -0.129589 0.153671 -0.548471 
vn -0.735215 0.661693 -0.147043 
vt 0.489261 0.554912 
v 0.143878 0.125219 -0.354301 
vn 0.761387 -0.647179 0.038069 
vt 0.625930 0.024980 
v 0.104806 0.303161 -0.333808 
vn 0.880451 0.440225 -0.176090 
vt 0.594540 0.197787 
v 0.108855 0.288749 -0.516950 
vn 0.826898 0.537484 -0.165380 
vt 0.760380 0.193423 
v 0.129589 0.153671 -0.548471 
vn 0.735215 0.661693 -0.147043 
vt 0.784173 0.025355 
v 0.083494 0.229451 -0.683826 
vn 0.815139 0.448327 -0.366813 
vt 0.906678 0.124359 
v 0.093507 0.130635 -0.756911 
vn 0.736709 0.589368 -0.331519 
vt 0.966904 0.024300 
v 0.083494 0.229451 -0.683826 
vn 0.815139 0.448327 -0.366813 
vt 0.324107 0.323364 
v 0.093507 0.130635 -0.756911 
vn 0.736709 0.589368 -0.331519 
vt 0.315010 0.185956 
v -0.000000 0.260618 -0.709139 
vn 0.000000 0.838444 -0.544988 
vt 0.399959 0.319659 
v -0.000000 0.157510 -0.844041 
vn 0.000000 0.857493 -0.514496 
vt 0.399959 0.120609 
v -0.093507 0.130635 -0.756911 
vn -0.736709 0.589368 -0.331519 
vt 0.484908 0.185956 
v -0.083494 0.229451 -0.683826 
vn -0.815139 0.448327 -0.366813 
vt 0.475811 0.323364 
v 0.127261 0.117549 0.287696 
vn 0.686398 -0.686398 0.240239 
vt 0.963174 0.346310 
v 0.000000 0.082757 0.344554 
vn 0.000000 -0.988936 0.148340 
vt 0.988600 0.260154 
v -0.000000 0.000223 -0.252287 
vn 0.000000 -1.000000 -0.000000 
vt 0.508567 0.318125 
v 0.234288 0.160955 0.171534 
vn 0.408669 -0.908153 0.090815 
vt 0.940661 0.416736 
v 0.186674 0.150287 -0.202072 
vn 0.970142 0.000000 -0.242536 
vt 0.564111 0.392651 
v 0.361133 0.131870 -0.052898 
vn 0.049690 -0.993808 -0.099381 
vt 0.113147 0.880065 
v 0.500841 0.131870 -0.128613 
vn 0.000000 -0.957826 -0.287348 
vt 0.064868 0.787725 
v 0.500841 0.205328 0.007645 
vn 0.000000 -1.000000 -0.000000 
vt 0.151752 0.787725 
v 0.629619 0.131870 -0.056914 
vn 0.276172 -0.920575 -0.276172 
vt 0.110587 0.702609 
v 0.368405 0.131870 0.089148 
vn -0.048450 -0.969003 0.242251 
vt 0.203722 0.875258 
v 0.625542 0.131870 0.078743 
vn 0.286039 -0.953463 0.095346 
vt 0.197087 0.705304 
v 0.496921 0.131870 0.160260 
vn 0.096561 -0.965609 0.241402 
vt 0.249066 0.790316 
v 0.755733 0.242346 0.007473 
vn 0.995037 -0.099504 -0.000000 
vt 0.151643 0.619254 
v 0.697379 0.242346 0.227969 
vn 0.778499 -0.077850 0.622799 
vt 0.292240 0.657823 
v 0.458697 0.242346 0.378250 
vn 0.049938 0.000000 0.998752 
vt 0.388066 0.815580 
v 0.629619 0.329717 -0.056914 
vn 0.329983 0.942809 -0.047140 
vt 0.110587 0.702609 
v 0.683422 0.242346 -0.171492 
vn 0.617213 0.154303 -0.771517 
vt 0.037527 0.667048 
v 0.486829 0.242346 -0.225519 
vn 0.000000 0.049938 -0.998752 
vt 0.003077 0.796986 
v 0.298943 0.214305 -0.186644 
vn -0.145521 -0.194028 -0.970142 
vt 0.027865 0.921169 
v 0.500841 0.329717 -0.128613 
vn 0.047837 0.956730 -0.287019 
vt 0.064868 0.787725 
v 0.625542 0.329717 0.078743 
vn 0.145521 0.970142 0.194028 
vt 0.197087 0.705304 
v 0.361133 0.329717 -0.052898 
vn -0.440225 0.880451 -0.176090 
vt 0.113147 0.880065 
v 0.500841 0.270668 0.007645 
vn 0.000000 1.000000 -0.000000 
vt 0.151752 0.787725 
v 0.496921 0.329717 0.160260 
vn -0.098414 0.984136 0.147620 
vt 0.249066 0.790316 
v 0.368405 0.329717 0.089148 
vn -0.241402 0.965609 0.096561 
vt 0.203722 0.875258 
v 0.234288 0.160955 0.171534 
vn 0.408669 -0.908153 0.090815 
vt 0.256255 0.963903 
v 0.318034 0.242346 0.253589 
vn -0.530669 0.379049 0.758098 
vt 0.308577 0.908551 
v 0.234288 0.208866 0.171534 
vn -0.146735 0.978232 0.146735 
vt 0.256255 0.963903 
v 0.186674 0.150287 -0.202072 
vn 0.970142 0.000000 -0.242536 
vt 0.018027 0.995373 
v 0.104806 0.303161 -0.333808 
vn 0.324617 0.185496 -0.927478 
vt 0.339744 0.008660 
v 0.059238 0.420668 -0.341271 
vn -0.049690 -0.099381 -0.993808 
vt 0.299741 0.115280 
v -0.000000 0.353793 -0.376875 
vn 0.000000 0.330350 -0.943858 
vt 0.247736 0.054602 
v -0.000000 0.449559 -0.341271 
vn 0.000000 0.196116 -0.980581 
vt 0.247736 0.141494 
v -0.104806 0.303161 -0.333808 
vn -0.324617 0.185496 -0.927478 
vt 0.155727 0.008660 
v -0.059238 0.420668 -0.341271 
vn 0.049690 -0.099381 -0.993808 
vt 0.195731 0.115280 
v 0.079261 0.290170 0.342689 
vn 0.049690 0.099381 0.993808 
vt 0.408213 0.013277 
v 0.000000 0.379226 0.337092 
vn 0.000000 0.099504 0.995037 
vt 0.492106 0.132274 
v 0.000000 0.305041 0.344554 
vn 0.000000 0.099504 0.995037 
vt 0.492106 0.033148 
v -0.079260 0.290170 0.342689 
vn -0.049690 0.099381 0.993808 
vt 0.575998 0.013277 
v 0.079261 0.290170 0.342689 
vn 0.826898 0.537484 0.165380 
vt 0.934413 0.386989 
v 0.127261 0.117549 0.287696 
vn 0.686398 -0.686398 0.240239 
vt 0.987005 0.221915 
v 0.043475 0.213232 0.781128 
vn 0.771517 0.617213 0.154303 
vt 0.515110 0.313415 
v 0.000000 0.278267 0.729369 
vn 0.000000 0.998752 0.049938 
vt 0.564610 0.375606 
v 0.000000 0.305041 0.344554 
vn 0.000000 0.998752 0.049938 
vt 0.932629 0.401210 
v 0.000000 0.154596 0.655328 
vn 0.000000 -1.000000 -0.000000 
vt 0.635419 0.257343 
v 0.000000 0.082757 0.344554 
vn 0.000000 -0.988936 0.148340 
vt 0.932629 0.188645 
v -0.079260 0.290170 0.342689 
vn -0.826898 0.537484 0.165380 
vt 0.934413 0.386989 
v -0.043475 0.213232 0.781128 
vn -0.771517 0.617213 0.154303 
vt 0.515110 0.313415 
v -0.127261 0.117549 0.287696 
vn -0.686398 -0.686398 0.240239 
vt 0.987005 0.221915 
v -0.117482 0.376575 -0.175313 
vn -0.684712 0.720750 0.108112 
vt 0.865477 0.919463 
v -0.059238 0.420668 -0.341271 
vn -0.826898 0.537484 -0.165380 
vt 0.980132 0.958800 
v -0.157651 0.303161 -0.170766 
vn -0.957826 0.287348 -0.000000 
vt 0.862335 0.853968 
v -0.079260 0.290170 0.342689 
vn -0.826898 0.537484 0.165380 
vt 0.507603 0.842379 
v -0.186674 0.150287 -0.202072 
vn -0.970142 0.000000 -0.242536 
vt 0.883964 0.717585 
v -0.104806 0.303161 -0.333808 
vn -0.880451 0.440225 -0.176090 
vt 0.974976 0.853968 
v -0.143878 0.125219 -0.354301 
vn -0.761387 -0.647179 0.038069 
vt 0.989134 0.695221 
v -0.234288 0.208866 0.171534 
vn 0.146735 0.978232 0.146735 
vt 0.625849 0.769845 
v -0.234288 0.160955 0.171534 
vn -0.408669 -0.908153 0.090815 
vt 0.625849 0.727102 
v -0.127261 0.117549 0.287696 
vn -0.686398 -0.686398 0.240239 
vt 0.545596 0.688378 
v -0.108855 0.288749 -0.516950 
vn -0.826898 0.537484 -0.165380 
vt 0.760380 0.193423 
v -0.129589 0.153671 -0.548471 
vn -0.735215 0.661693 -0.147043 
vt 0.784173 0.025355 
v -0.083494 0.229451 -0.683826 
vn -0.815139 0.448327 -0.366813 
vt 0.906678 0.124359 
v -0.104806 0.303161 -0.333808 
vn -0.880451 0.440225 -0.176090 
vt 0.594540 0.197787 
v -0.143878 0.125219 -0.354301 
vn -0.761387 -0.647179 0.038069 
vt 0.625930 0.024980 
v -0.093507 0.130635 -0.756911 
vn -0.736709 0.589368 -0.331519 
vt 0.966904 0.024300 
v -0.127261 0.117549 0.287696 
vn -0.686398 -0.686398 0.240239 
vt 0.962564 0.346121 
v -0.000000 0.000223 -0.252287 
vn 0.000000 -1.000000 -0.000000 
vt 0.507958 0.317936 
v 0.000000 0.082757 0.344554 
vn 0.000000 -0.988936 0.148340 
vt 0.987991 0.259965 
v -0.234288 0.160955 0.171534 
vn -0.408669 -0.908153 0.090815 
vt 0.940052 0.416547 
v -0.186674 0.150287 -0.202072 
vn -0.970142 0.000000 -0.242536 
vt 0.563502 0.392462 
v -0.496921 0.131870 0.160260 
vn -0.096561 -0.965609 0.241402 
vt 0.249066 0.788255 
v -0.500841 0.205328 0.007645 
vn 0.000000 -1.000000 -0.000000 
vt 0.151752 0.785665 
v -0.500841 0.131870 -0.128613 
vn 0.000000 -0.957826 -0.287348 
vt 0.064868 0.785665 
v -0.361133 0.131870 -0.052898 
vn -0.049690 -0.993808 -0.099381 
vt 0.113147 0.878004 
v -0.368405 0.131870 0.089148 
vn 0.048450 -0.969003 0.242251 
vt 0.203721 0.873198 
v -0.625542 0.131870 0.078743 
vn -0.286039 -0.953463 0.095346 
vt 0.197087 0.703244 
v -0.697379 0.242346 0.227969 
vn -0.778499 -0.077850 0.622799 
vt 0.292240 0.655763 
v -0.629618 0.131870 -0.056914 
vn -0.276172 -0.920575 -0.276172 
vt 0.110586 0.700549 
v -0.755733 0.242346 0.007473 
vn -0.995037 -0.099504 -0.000000 
vt 0.151642 0.617194 
v -0.683422 0.242346 -0.171492 
vn -0.617213 0.154303 -0.771517 
vt 0.037527 0.664988 
v -0.486829 0.242346 -0.225519 
vn 0.000000 0.049938 -0.998752 
vt 0.003076 0.794926 
v -0.629618 0.329717 -0.056914 
vn -0.329983 0.942809 -0.047140 
vt 0.110586 0.700549 
v -0.625542 0.329717 0.078743 
vn -0.145521 0.970142 0.194028 
vt 0.197087 0.703244 
v -0.458697 0.242346 0.378250 
vn -0.049938 0.000000 0.998752 
vt 0.388065 0.813519 
v -0.496921 0.329717 0.160260 
vn 0.098414 0.984136 0.147620 
vt 0.249066 0.788255 
v -0.500841 0.329717 -0.128613 
vn -0.047836 0.956730 -0.287019 
vt 0.064868 0.785665 
v -0.500841 0.270668 0.007645 
vn 0.000000 1.000000 -0.000000 
vt 0.151752 0.785665 
v -0.298943 0.214305 -0.186644 
vn 0.145521 -0.194028 -0.970142 
vt 0.027865 0.919109 
v -0.361133 0.329717 -0.052898 
vn 0.440225 0.880451 -0.176090 
vt 0.113147 0.878004 
v -0.368405 0.329717 0.089148 
vn 0.241402 0.965609 0.096561 
vt 0.203721 0.873198 
v -0.318034 0.242346 0.253589 
vn 0.530669 0.379049 0.758098 
vt 0.308576 0.906491 
v -0.234288 0.160955 0.171534 
vn -0.408669 -0.908153 0.090815 
vt 0.256255 0.961842 
v -0.186674 0.150287 -0.202072 
vn -0.970142 0.000000 -0.242536 
vt 0.018027 0.993313 
v -0.234288 0.208866 0.171534 
vn 0.146735 0.978232 0.146735 
vt 0.256255 0.961842 
v 0.000000 0.497291 0.847967 
vn 0.000000 0.838444 -0.544988 
vt 0.672188 0.392632 
v 0.000000 0.365465 0.795876 
vn 0.000000 0.481919 -0.876216 
vt 0.810163 0.400113 
v 0.000000 0.278267 0.729369 
vn 0.000000 0.998752 0.049938 
vt 0.929321 0.412996 
v -0.032422 0.306871 0.869026 
vn -0.995037 0.099504 -0.000000 
vt 0.825531 0.320135 
v -0.043475 0.213232 0.781128 
vn -0.771517 0.617213 0.154303 
vt 0.931969 0.317616 
v 0.000000 0.497265 1.000000 
vn 0.000000 0.514496 0.857493 
vt 0.660624 0.238320 
v 0.000000 0.280459 0.975230 
vn 0.000000 -0.287348 0.957826 
vt 0.807877 0.211147 
v 0.033312 0.306871 0.869026 
vn 0.995037 0.099504 -0.000000 
vt 0.825531 0.320135 
v 0.043475 0.213232 0.781128 
vn 0.771517 0.617213 0.154303 
vt 0.931969 0.317616 
v 0.000000 0.160200 0.930151 
vn 0.000000 0.688749 0.724999 
vt 0.904786 0.191282 
v 0.165459 0.076395 -0.640296 
vn 0.369800 -0.924500 -0.092450 
vt 0.291187 0.308350 
v 0.143878 0.125219 -0.354301 
vn 0.761387 -0.647179 0.038069 
vt 0.029365 0.334293 
v 0.413552 0.031570 -0.326723 
vn 0.000000 0.000000 -1.000000 
vt 0.004118 0.010122 
v 0.415529 0.030802 -0.432431 
vn 0.911922 0.410365 -0.000000 
vt 0.100892 0.007746 
v 0.129589 0.153671 -0.548471 
vn 0.735215 0.661693 -0.147043 
vt 0.207124 0.351469 
v 0.000000 0.160200 0.930151 
vn 0.000000 0.688749 0.724999 
vt 0.008013 0.342032 
v 0.340645 0.208226 0.983689 
vn 0.257674 0.625779 0.736210 
vt -0.001340 0.011782 
v 0.000000 0.125499 0.871414 
vn 0.000000 -1.000000 -0.000000 
vt 0.063354 0.351790 
v 0.000000 0.154596 0.655328 
vn 0.000000 -1.000000 -0.000000 
vt 0.290631 0.315226 
v 0.259496 0.208174 0.803429 
vn 0.540914 -0.721218 -0.432731 
vt 0.136345 0.061671 
v 0.043475 0.213232 0.781128 
vn 0.771517 0.617213 0.154303 
vt 0.153876 0.359125 
v -0.129589 0.153671 -0.548471 
vn -0.735215 0.661693 -0.147043 
vt 0.207124 0.352474 
v -0.143878 0.125219 -0.354301 
vn -0.761387 -0.647179 0.038069 
vt 0.029365 0.335298 
v -0.415529 0.030802 -0.432431 
vn -0.911922 0.410365 -0.000000 
vt 0.100892 0.008751 
v -0.165459 0.076395 -0.640296 
vn -0.369800 -0.924500 -0.092450 
vt 0.291187 0.309355 
v -0.413552 0.031570 -0.326723 
vn 0.000000 0.000000 1.000000 
vt 0.004118 0.011127 
v 0.000000 0.160200 0.930151 
vn 0.000000 0.688749 0.724999 
vt 0.008032 0.341925 
v -0.340645 0.208226 0.983689 
vn -0.257674 0.625779 0.736210 
vt -0.001320 0.011675 
v -0.043475 0.213232 0.781128 
vn -0.771517 0.617213 0.154303 
vt 0.153895 0.359018 
v 0.000000 0.125499 0.871414 
vn 0.000000 -1.000000 -0.000000 
vt 0.063373 0.351683 
v -0.259496 0.208174 0.803429 
vn -0.540914 -0.721218 -0.432731 
vt 0.136364 0.061564 
v 0.000000 0.154596 0.655328 
vn 0.000000 -1.000000 -0.000000 
vt 0.290650 0.315119 
v 0.163860 0.299790 -0.166610 
vn 0.940721 0.188144 -0.282216 
vt 0.345420 0.997180 
v 0.138035 0.180113 -0.334703 
vn 0.940721 0.188144 -0.282216 
vt 0.490625 0.902977 
v 0.113720 0.302690 -0.324746 
vn 0.940721 0.188144 -0.282216 
vt 0.490625 0.997180 
v 0.188175 0.177212 -0.176567 
vn 0.940721 0.188144 -0.282216 
vt 0.345419 0.902977 
v -0.111096 0.298631 -0.325299 
vn -0.908153 0.272446 -0.317854 
vt 0.345420 0.997180 
v -0.144091 0.178056 -0.334709 
vn -0.908153 0.272446 -0.317854 
vt 0.345419 0.902977 
v -0.164666 0.301037 -0.168283 
vn -0.908153 0.272446 -0.317854 
vt 0.490625 0.997180 
v -0.197660 0.180462 -0.177693 
vn -0.908153 0.272446 -0.317854 
vt 0.490625 0.902977 
##########
# material name: , texture name: Info Helicopter 2 copy, vertex count: 162 
g default 
f 2/2/2 1/1/1 3/3/3 
f 2/2/2 3/3/3 6/6/6 
f 6/6/6 5/5/5 2/2/2 
f 5/5/5 6/6/6 7/7/7 
f 7/7/7 4/4/4 5/5/5 
f 8/8/8 7/7/7 6/6/6 
f 6/6/6 9/9/9 8/8/8 
f 9/9/9 6/6/6 3/3/3 
f 3/3/3 10/10/10 9/9/9 
f 7/7/7 8/8/8 11/11/11 
f 12/12/12 16/16/16 15/15/15 
f 24/24/24 13/13/13 15/15/15 
f 15/15/15 14/14/14 24/24/24 
f 15/15/15 13/13/13 12/12/12 
f 14/14/14 15/15/15 18/18/18 
f 18/18/18 19/19/19 14/14/14 
f 16/16/16 18/18/18 15/15/15 
f 21/21/21 23/23/23 19/19/19 
f 21/21/21 18/18/18 16/16/16 
f 19/19/19 18/18/18 21/21/21 
f 20/20/20 22/22/22 21/21/21 
f 22/22/22 20/20/20 17/17/17 
f 20/20/20 16/16/16 17/17/17 
f 16/16/16 20/20/20 21/21/21 
f 25/25/25 26/26/26 28/28/28 
f 28/28/28 29/29/29 25/25/25 
f 27/27/27 28/28/28 30/30/30 
f 28/28/28 27/27/27 29/29/29 
f 31/31/31 32/32/32 33/33/33 
f 33/33/33 34/34/34 31/31/31 
f 33/33/33 35/35/35 34/34/34 
f 35/35/35 33/33/33 36/36/36 
f 37/37/37 38/38/38 39/39/39 
f 40/40/40 39/39/39 38/38/38 
f 42/42/42 38/38/38 37/37/37 
f 37/37/37 41/41/41 42/42/42 
f 43/43/43 42/42/42 41/41/41 
f 42/42/42 43/43/43 44/44/44 
f 45/45/45 44/44/44 43/43/43 
f 44/44/44 45/45/45 46/46/46 
f 47/47/47 50/50/50 49/49/49 
f 49/49/49 48/48/48 47/47/47 
f 51/51/51 49/49/49 50/50/50 
f 50/50/50 52/52/52 51/51/51 
f 56/56/56 55/55/55 54/54/54 
f 55/55/55 53/53/53 54/54/54 
f 55/55/55 57/57/57 58/58/58 
f 57/57/57 55/55/55 56/56/56 
f 59/59/59 60/60/60 61/61/61 
f 62/62/62 59/59/59 61/61/61 
f 62/62/62 61/61/61 63/63/63 
f 64/64/64 65/65/65 66/66/66 
f 65/65/65 67/67/67 66/66/66 
f 66/66/66 68/68/68 64/64/64 
f 66/66/66 70/70/70 68/68/68 
f 66/66/66 69/69/69 70/70/70 
f 68/68/68 70/70/70 73/73/73 
f 66/66/66 67/67/67 69/69/69 
f 68/68/68 73/73/73 85/85/85 
f 70/70/70 72/72/72 73/73/73 
f 70/70/70 69/69/69 72/72/72 
f 69/69/69 71/71/71 72/72/72 
f 69/69/69 67/67/67 71/71/71 
f 67/67/67 75/75/75 71/71/71 
f 67/67/67 65/65/65 76/76/76 
f 67/67/67 76/76/76 75/75/75 
f 65/65/65 77/77/77 76/76/76 
f 65/65/65 64/64/64 77/77/77 
f 75/75/75 76/76/76 78/78/78 
f 75/75/75 78/78/78 74/74/74 
f 76/76/76 80/80/80 78/78/78 
f 77/77/77 80/80/80 76/76/76 
f 81/81/81 74/74/74 78/78/78 
f 81/81/81 78/78/78 80/80/80 
f 81/81/81 80/80/80 83/83/83 
f 81/81/81 83/83/83 82/82/82 
f 85/85/85 82/82/82 83/83/83 
f 85/85/85 73/73/73 82/82/82 
f 73/73/73 79/79/79 82/82/82 
f 81/81/81 82/82/82 79/79/79 
f 81/81/81 79/79/79 74/74/74 
f 72/72/72 74/74/74 79/79/79 
f 72/72/72 71/71/71 74/74/74 
f 71/71/71 75/75/75 74/74/74 
f 73/73/73 72/72/72 79/79/79 
f 86/86/86 83/83/83 80/80/80 
f 80/80/80 87/87/87 86/86/86 
f 83/83/83 86/86/86 85/85/85 
f 84/84/84 85/85/85 86/86/86 
f 85/85/85 84/84/84 68/68/68 
f 87/87/87 64/64/64 84/84/84 
f 64/64/64 68/68/68 84/84/84 
f 80/80/80 77/77/77 87/87/87 
f 77/77/77 64/64/64 87/87/87 
f 88/88/88 90/90/90 91/91/91 
f 89/89/89 88/88/88 91/91/91 
f 92/92/92 91/91/91 90/90/90 
f 91/91/91 92/92/92 93/93/93 
f 94/94/94 95/95/95 96/96/96 
f 97/97/97 96/96/96 95/95/95 
f 98/98/98 102/102/102 101/101/101 
f 100/100/100 103/103/103 99/99/99 
f 99/99/99 98/98/98 100/100/100 
f 101/101/101 100/100/100 98/98/98 
f 99/99/99 103/103/103 104/104/104 
f 101/101/101 102/102/102 105/105/105 
f 101/101/101 105/105/105 106/106/106 
f 107/107/107 106/106/106 105/105/105 
f 106/106/106 107/107/107 103/103/103 
f 104/104/104 103/103/103 107/107/107 
f 108/108/108 24/24/24 109/109/109 
f 24/24/24 108/108/108 13/13/13 
f 108/108/108 12/12/12 13/13/13 
f 110/110/110 109/109/109 113/113/113 
f 109/109/109 110/110/110 108/108/108 
f 111/111/111 110/110/110 112/112/112 
f 12/12/12 108/108/108 111/111/111 
f 112/112/112 113/113/113 114/114/114 
f 113/113/113 112/112/112 110/110/110 
f 111/111/111 108/108/108 110/110/110 
f 115/115/115 112/112/112 116/116/116 
f 115/115/115 111/111/111 112/112/112 
f 115/115/115 117/117/117 111/111/111 
f 116/116/116 117/117/117 115/115/115 
f 118/118/118 119/119/119 122/122/122 
f 122/122/122 121/121/121 118/118/118 
f 119/119/119 118/118/118 120/120/120 
f 119/119/119 120/120/120 123/123/123 
f 124/124/124 125/125/125 126/126/126 
f 127/127/127 125/125/125 124/124/124 
f 127/127/127 128/128/128 125/125/125 
f 146/146/146 132/132/132 131/131/131 
f 130/130/130 131/131/131 132/132/132 
f 130/130/130 132/132/132 133/133/133 
f 130/130/130 133/133/133 129/129/129 
f 130/130/130 129/129/129 134/134/134 
f 130/130/130 134/134/134 136/136/136 
f 130/130/130 136/136/136 131/131/131 
f 133/133/133 149/149/149 142/142/142 
f 133/133/133 142/142/142 129/129/129 
f 129/129/129 142/142/142 135/135/135 
f 129/129/129 135/135/135 134/134/134 
f 149/149/149 143/143/143 142/142/142 
f 149/149/149 148/148/148 143/143/143 
f 142/142/142 143/143/143 141/141/141 
f 142/142/142 141/141/141 135/135/135 
f 135/135/135 141/141/141 140/140/140 
f 143/143/143 148/148/148 145/145/145 
f 145/145/145 141/141/141 143/143/143 
f 145/145/145 140/140/140 141/141/141 
f 138/138/138 140/140/140 144/144/144 
f 145/145/145 144/144/144 140/140/140 
f 136/136/136 137/137/137 138/138/138 
f 137/137/137 140/140/140 138/138/138 
f 136/136/136 138/138/138 139/139/139 
f 144/144/144 139/139/139 138/138/138 
f 136/136/136 139/139/139 131/131/131 
f 131/131/131 139/139/139 146/146/146 
f 134/134/134 137/137/137 136/136/136 
f 134/134/134 135/135/135 137/137/137 
f 135/135/135 140/140/140 137/137/137 
f 139/139/139 144/144/144 147/147/147 
f 145/145/145 147/147/147 144/144/144 
f 145/145/145 148/148/148 147/147/147 
f 147/147/147 148/148/148 152/152/152 
f 147/147/147 152/152/152 151/151/151 
f 148/148/148 149/149/149 152/152/152 
f 152/152/152 149/149/149 150/150/150 
f 132/132/132 150/150/150 133/133/133 
f 151/151/151 150/150/150 132/132/132 
f 133/133/133 150/150/150 149/149/149 
f 146/146/146 151/151/151 132/132/132 
f 147/147/147 151/151/151 146/146/146 
f 147/147/147 146/146/146 139/139/139 
f 153/153/153 154/154/154 156/156/156 
f 154/154/154 155/155/155 156/156/156 
f 156/156/156 155/155/155 157/157/157 
f 153/153/153 156/156/156 158/158/158 
f 158/158/158 156/156/156 159/159/159 
f 156/156/156 157/157/157 159/159/159 
f 159/159/159 157/157/157 162/162/162 
f 160/160/160 158/158/158 159/159/159 
f 160/160/160 155/155/155 154/154/154 
f 153/153/153 160/160/160 154/154/154 
f 153/153/153 158/158/158 160/160/160 
f 162/162/162 161/161/161 159/159/159 
f 161/161/161 160/160/160 159/159/159 
f 160/160/160 161/161/161 155/155/155 
# material name: player color, texture name: Info Helicopter 2 copy, vertex count: 30 
g player color 
f 164/164/164 163/163/163 166/166/166 
f 166/166/166 165/165/165 164/164/164 
f 163/163/163 167/167/167 166/166/166 
f 164/164/164 166/166/166 167/167/167 
f 164/164/164 165/165/165 166/166/166 
f 168/168/168 170/170/170 169/169/169 
f 171/171/171 173/173/173 172/172/172 
f 170/170/170 171/171/171 172/172/172 
f 172/172/172 169/169/169 170/170/170 
f 173/173/173 168/168/168 169/169/169 
f 169/169/169 172/172/172 173/173/173 
f 175/175/175 176/176/176 177/177/177 
f 176/176/176 175/175/175 178/178/178 
f 177/177/177 176/176/176 174/174/174 
f 175/175/175 174/174/174 176/176/176 
f 175/175/175 176/176/176 178/178/178 
f 179/179/179 180/180/180 182/182/182 
f 184/184/184 183/183/183 181/181/181 
f 182/182/182 183/183/183 184/184/184 
f 183/183/183 182/182/182 180/180/180 
f 181/181/181 180/180/180 179/179/179 
f 180/180/180 181/181/181 183/183/183 
f 185/185/185 188/188/188 187/187/187 
f 186/186/186 187/187/187 188/188/188 
f 189/189/189 190/190/190 191/191/191 
f 192/192/192 191/191/191 190/190/190 
### tag points 
o 2dexplosion_00 
p -0.197660 0.180462 -0.177693 
o 2dexplosion_01 
p -0.197660 0.180462 -0.177693 
o 2dfire_00 
p -0.197660 0.180462 -0.177693 
o 2dfire_01 
p -0.197660 0.180462 -0.177693 
o attack 
p -0.197660 0.180462 -0.177693 
o impact_00 
p -0.197660 0.180462 -0.177693 
o impact_01 
p -0.197660 0.180462 -0.177693 
o weapon_mount_00 
p -0.197660 0.180462 -0.177693 
